<?xml version="1.0" encoding="UTF-8"?>
<svg id="Layer_1" data-name="Layer 1" xmlns="http://www.w3.org/2000/svg" width="6.61in" height="1.23in" viewBox="0 0 475.56 88.63">
  <g>
    <path d="m3.84,49.34H0v-3.54h3.84v-8.8l3.78-1.6v10.4h4.08v3.54h-4.08v27.65h-3.78v-27.65Z" fill="#efb44e" stroke-width="0"/>
    <path d="m17.72,31.5h3.78v13.23c0,1.77,0,3.37-.06,4.96,1.71-2.84,4.73-4.49,8.8-4.49,6.91,0,10.99,4.73,10.99,12.88v18.91h-3.78v-18.73c0-6.14-2.78-9.45-7.92-9.45s-8.03,3.31-8.03,9.45v18.73h-3.78V31.5Z" fill="#efb44e" stroke-width="0"/>
    <path d="m47.55,61.51c0-9.04,6.5-16.19,15.42-16.19,7.68,0,14.48,5.2,14.71,16.07h-26.47v.18c0,6.97,4.84,12.47,12.17,12.47,5.02,0,9.1-2.54,11.4-6.74l2.84,1.83c-2.36,4.13-7.03,8.39-14.3,8.39-9.45,0-15.78-7.03-15.78-16.01Zm26.23-3.25c-1.18-6.62-5.79-9.51-10.87-9.51-5.97,0-10.28,4.08-11.4,9.51h22.27Z" fill="#efb44e" stroke-width="0"/>
    <path d="m97.52,61.45c0-9.39,6.62-15.95,15.83-15.95,1.42,0,3.19.18,5.02.47v3.54c-2.01-.3-3.54-.41-4.67-.41-7.39,0-12.35,5.08-12.35,12.35s4.96,12.29,12.35,12.29c1.12,0,2.66-.12,4.67-.41v3.54c-1.83.35-3.6.53-5.02.53-9.22,0-15.83-6.62-15.83-15.95Z" fill="#efb44e" stroke-width="0"/>
    <path d="m121.8,61.45c0-9.39,6.79-16.25,15.77-16.25s15.78,6.85,15.78,16.25-6.79,16.19-15.78,16.19-15.77-6.91-15.77-16.19Zm15.77,12.53c6.85,0,11.94-5.26,11.94-12.53s-5.08-12.64-11.94-12.64-11.93,5.32-11.93,12.64,5.08,12.53,11.93,12.53Z" fill="#efb44e" stroke-width="0"/>
    <path d="m169.18,31.5h1v3.6h-.59c-3.49,0-5.08,1.36-5.08,4.9v5.79h4.19v3.54h-4.19v27.65h-3.78v-27.65h-3.78v-3.54h3.78v-6.14c0-5.14,2.84-8.15,8.45-8.15Z" fill="#efb44e" stroke-width="0"/>
    <path d="m184.36,31.5h1v3.6h-.59c-3.49,0-5.08,1.36-5.08,4.9v5.79h4.19v3.54h-4.19v27.65h-3.78v-27.65h-3.78v-3.54h3.78v-6.14c0-5.14,2.84-8.15,8.45-8.15Z" fill="#efb44e" stroke-width="0"/>
    <path d="m187.25,61.51c0-9.04,6.5-16.19,15.42-16.19,7.68,0,14.47,5.2,14.71,16.07h-26.47v.18c0,6.97,4.84,12.47,12.17,12.47,5.02,0,9.1-2.54,11.4-6.74l2.84,1.83c-2.36,4.13-7.03,8.39-14.3,8.39-9.45,0-15.77-7.03-15.77-16.01Zm26.23-3.25c-1.18-6.62-5.79-9.51-10.87-9.51-5.97,0-10.28,4.08-11.4,9.51h22.27Z" fill="#efb44e" stroke-width="0"/>
    <path d="m222.04,61.51c0-9.04,6.5-16.19,15.42-16.19,7.68,0,14.47,5.2,14.71,16.07h-26.47v.18c0,6.97,4.84,12.47,12.17,12.47,5.02,0,9.1-2.54,11.4-6.74l2.84,1.83c-2.36,4.13-7.03,8.39-14.3,8.39-9.45,0-15.77-7.03-15.77-16.01Zm26.23-3.25c-1.18-6.62-5.79-9.51-10.87-9.51-5.97,0-10.28,4.08-11.4,9.51h22.27Z" fill="#efb44e" stroke-width="0"/>
    <path d="m272.31,76.99v-3.43c2.36.24,4.55.35,5.85.35,4.67,0,6.97-1.6,6.97-4.9,0-2.36-1.3-3.96-4.61-6.03l-2.13-1.36c-4.31-2.66-6.26-5.2-6.26-8.57,0-4.61,3.66-7.56,9.69-7.56,1.24,0,3.01.12,4.67.29v3.19c-1.77-.18-3.13-.24-4.08-.24-4.25,0-6.56,1.59-6.56,4.31,0,2.07,1.42,3.66,4.79,5.73l2.25,1.42c4.25,2.72,6.08,5.2,6.08,8.74,0,5.2-3.96,8.39-10.69,8.39-1.42,0-3.66-.18-5.97-.35Z" fill="#efb44e" stroke-width="0"/>
    <path d="m295.05,31.5h3.78v13.23c0,1.77,0,3.37-.06,4.96,1.71-2.84,4.73-4.49,8.8-4.49,6.91,0,10.99,4.73,10.99,12.88v18.91h-3.78v-18.73c0-6.14-2.78-9.45-7.92-9.45s-8.03,3.31-8.03,9.45v18.73h-3.78V31.5Z" fill="#efb44e" stroke-width="0"/>
    <path d="m324.88,61.45c0-9.39,6.79-16.25,15.78-16.25s15.77,6.85,15.77,16.25-6.79,16.19-15.77,16.19-15.78-6.91-15.78-16.19Zm15.78,12.53c6.85,0,11.93-5.26,11.93-12.53s-5.08-12.64-11.93-12.64-11.94,5.32-11.94,12.64,5.08,12.53,11.94,12.53Z" fill="#efb44e" stroke-width="0"/>
    <path d="m363.1,45.8h3.49v5.73c2.19-3.84,6.79-6.32,11.93-6.32,8.57,0,15.48,6.74,15.48,16.25s-6.91,16.13-15.48,16.13c-5.02,0-9.51-2.3-11.76-5.97.06,2.19.12,4.49.12,6.68v10.34h-3.78v-42.83Zm15.01,28.18c6.97,0,12.05-5.26,12.05-12.53s-5.08-12.64-12.05-12.64c-6.26,0-11.58,4.43-11.58,12.64s5.32,12.53,11.58,12.53Z" fill="#efb44e" stroke-width="0"/>
  </g>
  <path d="m473.38,32.96s-.02-.02-.04-.03l-33.44-28.7c-4.24-3.64-11.11-3.64-15.35,0l-33.44,28.7s-.02.02-.04.03c-1.51,1.31-.34,3.55,1.81,6.13h12.84v30.32c0,5.3,5,9.59,11.17,9.59h30.65c6.17,0,11.17-4.29,11.17-9.59v-30.32h12.84c2.15-2.57,3.32-4.82,1.81-6.13Z" fill="none" stroke="#efb44e" stroke-miterlimit="10" stroke-width="3"/>
</svg>